<svg id="calendar-date-fill" xmlns="http://www.w3.org/2000/svg" width="23.33" height="23.33" viewBox="0 0 23.33 23.33">
  <path id="Path_5155" data-name="Path 5155" d="M5.833.729a.729.729,0,0,0-1.458,0v.729H2.916A2.916,2.916,0,0,0,0,4.374V5.833H23.33V4.374a2.916,2.916,0,0,0-2.916-2.916H18.956V.729a.729.729,0,0,0-1.458,0v.729H5.833ZM0,7.291H23.33V20.414a2.916,2.916,0,0,1-2.916,2.916H2.916A2.916,2.916,0,0,1,0,20.414ZM13.613,18.649A2.318,2.318,0,0,1,11.13,16.6h1a1.445,1.445,0,0,0,1.533,1.2c1.231,0,1.9-1.236,1.9-3.155h-.04A2.033,2.033,0,0,1,13.5,15.79a2.418,2.418,0,0,1-2.444-2.581,2.563,2.563,0,0,1,2.62-2.638c1.709,0,2.848,1.07,2.848,3.89,0,2.632-1.082,4.186-2.916,4.186Zm.1-3.709a1.709,1.709,0,0,0,1.726-1.721,1.624,1.624,0,0,0-1.691-1.794,1.649,1.649,0,0,0-1.7,1.765,1.605,1.605,0,0,0,1.668,1.75ZM9.4,10.725V18.5H8.413V11.778H8.4c-.423.227-1.288.758-1.834,1.133V11.9a18.373,18.373,0,0,1,1.914-1.174H9.4Z" transform="translate(0)" fill="#2d2d2d" fill-rule="evenodd"/>
</svg>
