<svg xmlns="http://www.w3.org/2000/svg" width="22.417" height="12.236" viewBox="0 0 22.417 12.236">
  <path id="key" d="M11.9,8.944H22.417v4.11H20.41v4.063H16.3V13.054H11.9A6.305,6.305,0,0,1,9.656,15.97a5.867,5.867,0,0,1-3.537,1.147,5.9,5.9,0,0,1-4.326-1.792A5.894,5.894,0,0,1,0,11,5.9,5.9,0,0,1,1.792,6.673,5.9,5.9,0,0,1,6.118,4.881,5.867,5.867,0,0,1,9.655,6.028,6.305,6.305,0,0,1,11.9,8.944Zm-5.783,4.11A2.039,2.039,0,0,0,8.173,11,2.04,2.04,0,0,0,6.118,8.944,2.04,2.04,0,0,0,4.063,11a2.04,2.04,0,0,0,2.055,2.055Z" transform="translate(0 -4.881)" fill="rgba(45,45,45,0.5)"/>
</svg>
