<svg xmlns="http://www.w3.org/2000/svg" width="24.083" height="24.083" viewBox="0 0 24.083 24.083">
  <path id="search" d="M16.673,10.189a6.244,6.244,0,0,0-1.9-4.58,6.247,6.247,0,0,0-4.58-1.9,6.243,6.243,0,0,0-4.581,1.9,6.243,6.243,0,0,0-1.9,4.581,6.248,6.248,0,0,0,1.9,4.58,6.244,6.244,0,0,0,4.581,1.9,6.241,6.241,0,0,0,4.58-1.9A6.251,6.251,0,0,0,16.673,10.189Zm7.41,12.042a1.878,1.878,0,0,1-1.852,1.852,1.72,1.72,0,0,1-1.3-.55l-4.964-4.95a9.911,9.911,0,0,1-5.775,1.795,10.009,10.009,0,0,1-3.958-.8A9.976,9.976,0,0,1,.8,14.147a10.152,10.152,0,0,1,0-7.917A9.976,9.976,0,0,1,6.231.8a10.152,10.152,0,0,1,7.917,0,9.976,9.976,0,0,1,5.427,5.427,10,10,0,0,1,.8,3.958,9.909,9.909,0,0,1-1.795,5.775l4.964,4.964A1.773,1.773,0,0,1,24.083,22.231Z" fill="#f2f2f2"/>
</svg>
