<svg xmlns="http://www.w3.org/2000/svg" width="36" height="36" viewBox="0 0 36 36">
  <path id="search" d="M24.923,15.231a9.334,9.334,0,0,0-2.845-6.847,9.338,9.338,0,0,0-6.847-2.846A9.332,9.332,0,0,0,8.383,8.383a9.332,9.332,0,0,0-2.845,6.848,9.339,9.339,0,0,0,2.845,6.847,9.333,9.333,0,0,0,6.848,2.845,9.33,9.33,0,0,0,6.847-2.845A9.344,9.344,0,0,0,24.923,15.231ZM36,33.231A2.807,2.807,0,0,1,33.231,36a2.571,2.571,0,0,1-1.947-.822l-7.421-7.4a14.815,14.815,0,0,1-8.632,2.683,14.961,14.961,0,0,1-5.917-1.2A14.912,14.912,0,0,1,1.2,21.148a15.176,15.176,0,0,1,0-11.834A14.912,14.912,0,0,1,9.314,1.2a15.176,15.176,0,0,1,11.834,0,14.912,14.912,0,0,1,8.113,8.113,14.943,14.943,0,0,1,1.2,5.917,14.812,14.812,0,0,1-2.683,8.632L35.2,31.284A2.65,2.65,0,0,1,36,33.231Z" fill="#f2f2f2"/>
</svg>
