<svg xmlns="http://www.w3.org/2000/svg" width="338.806" height="313.744" viewBox="0 0 338.806 313.744">
  <g id="Group_1605" data-name="Group 1605" transform="translate(-56.111 -68.468)">
    <ellipse id="Ellipse_1" data-name="Ellipse 1" cx="169.403" cy="9.893" rx="169.403" ry="9.893" transform="translate(56.111 362.425)" fill="#ffc9a4" opacity="0.15"/>
    <g id="Group_1604" data-name="Group 1604" transform="translate(129.133 68.468)">
      <g id="Group_1601" data-name="Group 1601" transform="translate(23.569 41.533)">
        <path id="Path_84" data-name="Path 84" d="M212.789,196.446c-.237.359-.384.569-.571.827s-.356.486-.536.719c-.36.472-.734.91-1.109,1.352-.758.87-1.53,1.719-2.346,2.517a48.909,48.909,0,0,1-5.219,4.4,46.433,46.433,0,0,1-5.811,3.566c-1.021.5-2.039,1.007-3.1,1.428l-1.583.629-.439.17a7.2,7.2,0,0,1-.743.225,6.334,6.334,0,0,1-1.616.188,6.576,6.576,0,0,1-2.983-.749,8.763,8.763,0,0,1-2.017-1.459,14.919,14.919,0,0,1-2.44-3.145,33.6,33.6,0,0,1-2.789-6.286,69.464,69.464,0,0,1-2.929-12.684l3.651-.8c.66,1.913,1.339,3.892,2.1,5.792.723,1.917,1.5,3.8,2.373,5.6a32.516,32.516,0,0,0,2.833,4.975,8.572,8.572,0,0,0,1.548,1.712,1.885,1.885,0,0,0,.564.329c.123.038.111,0,.052-.02a.15.15,0,0,1-.059-.018c-.007.006,0-.017.007-.015l.285-.138,1.305-.632c.87-.419,1.7-.917,2.547-1.377a52.515,52.515,0,0,0,4.785-3.244,44.954,44.954,0,0,0,4.3-3.841c.688-.668,1.332-1.376,1.955-2.087.306-.357.612-.721.895-1.08l.422-.532.342-.456Z" transform="translate(-167.914 -125.014)" fill="#ce7a63"/>
        <path id="Path_85" data-name="Path 85" d="M205.346,197.333l4.43,10.619-3.2,2.007-4.98-9.643Z" transform="translate(-171.075 -126.275)" fill="#682a00"/>
        <path id="Path_86" data-name="Path 86" d="M218.107,187.09c-7.226-.1-14.562,9.053-14.748,9.278l5.719,13.436s12.711-10.32,13.348-14.353C223.089,191.251,222.688,187.153,218.107,187.09Z" transform="translate(-171.298 -124.981)" fill="#ff6f00"/>
        <path id="Path_87" data-name="Path 87" d="M179.162,185.209l-5-3.887-1.007,7.648s4.856,1.906,7.444.256l-.07-1.4A3.547,3.547,0,0,0,179.162,185.209Z" transform="translate(-167.483 -124.253)" fill="#ce7a63"/>
        <path id="Path_88" data-name="Path 88" d="M166.663,180.875l.311,5.818,5.358,2.221,1.007-7.649Z" transform="translate(-166.663 -124.196)" fill="#ce7a63"/>
        <path id="Path_89" data-name="Path 89" d="M291.713,183.988l7.723-1.933-5.4-5.512s-5.011,2.039-3.79,6.41Z" transform="translate(-182.246 -123.649)" fill="#ce7a63"/>
        <path id="Path_90" data-name="Path 90" d="M303.89,180.4l-.639-6.063-8.638,1.926,5.4,5.512Z" transform="translate(-182.822 -123.371)" fill="#ce7a63"/>
        <path id="Path_91" data-name="Path 91" d="M261.26,405.014l-7.19.7-6-16.974,7.19-.7Z" transform="translate(-176.945 -150.359)" fill="#ce7a63"/>
        <path id="Path_92" data-name="Path 92" d="M348.541,365.105l-5.3,5.139-13.605-10.622,5.3-5.139Z" transform="translate(-187.245 -146.121)" fill="#ce7a63"/>
        <path id="Path_93" data-name="Path 93" d="M343.282,370.3l4.072-7.226a.584.584,0,0,1,.728-.266l6.182,2.4a1.186,1.186,0,0,1,.563,1.676c-1.463,2.5-2.294,3.626-4.085,6.8-1.1,1.955-3.25,6.442-4.771,9.142-1.488,2.641-4.272,1.34-3.88.079,1.755-5.651,1.451-8.806.982-11.308A1.926,1.926,0,0,1,343.282,370.3Z" transform="translate(-188.813 -147.166)" fill="#682a00"/>
        <path id="Path_94" data-name="Path 94" d="M251.183,405.743h8.758a.726.726,0,0,1,.692.532l1.9,6.929a1.084,1.084,0,0,1-1.069,1.387c-3.061-.052-4.556-.232-8.407-.232-2.37,0-10.087.246-13.359.246-3.2,0-3.871-3.235-2.546-3.528,5.938-1.314,10.954-3.126,12.786-4.855A1.8,1.8,0,0,1,251.183,405.743Z" transform="translate(-175.485 -152.594)" fill="#682a00"/>
        <path id="Path_95" data-name="Path 95" d="M248.078,388.742l3.089,8.749h7.439l-3.335-9.447Z" transform="translate(-176.945 -150.359)" fill="#bc6753"/>
        <path id="Path_96" data-name="Path 96" d="M334.941,354.484l-5.3,5.141,7.015,5.473,5.3-5.141Z" transform="translate(-187.245 -146.121)" fill="#bc6753"/>
        <path id="Path_97" data-name="Path 97" d="M212.166,188.011s-2.967,2.259,17.044,41.32l28.535-9.21c-4.227-11.46-6.552-18.616-8.7-44.24a88.489,88.489,0,0,0-12.632,2.314,104.807,104.807,0,0,0-12.956,4.182C218.06,184.682,212.166,188.011,212.166,188.011Z" transform="translate(-172.39 -123.565)" fill="#ff6f00"/>
        <path id="Path_98" data-name="Path 98" d="M232,162.305c.529,4.432,2.178,12.334,5.993,14.175,0,0,.225,4.6-7.521,7.1-8.518,2.75-5.435-2.915-5.435-2.915,4.29-2.611,3.057-6.021,1.2-9Z" transform="translate(-173.967 -121.851)" fill="#ce7a63"/>
        <g id="Group_1600" data-name="Group 1600" transform="translate(43.623 53.085)">
          <path id="Path_99" data-name="Path 99" d="M216.687,186c2.107-1.092,4.788-2.418,7.352-3.515A95.2,95.2,0,0,1,237,178.3c2.494-.678,5.01-1.188,7.133-1.541.2.592-.407,2.129-1.883,4.251-4.672,3.886-14.639,8.924-21.99,8.739C217.086,188.558,216.286,187.293,216.687,186Z" transform="translate(-216.592 -176.762)" fill="#ce7a63"/>
          <path id="Path_100" data-name="Path 100" d="M242.779,181.627a52.831,52.831,0,0,1-11.253,11.147,55.461,55.461,0,0,1-10.736-2.408C228.14,190.551,238.107,185.513,242.779,181.627Z" transform="translate(-217.122 -177.376)" fill="#682a00"/>
        </g>
        <path id="Path_101" data-name="Path 101" d="M229.9,166.674l-3.411,5.537a13.93,13.93,0,0,1,1.142,2.171c1.693-.83,3.856-3.285,3.444-5.206A7.85,7.85,0,0,0,229.9,166.674Z" transform="translate(-174.219 -122.403)" fill="#bc6753"/>
        <path id="Path_102" data-name="Path 102" d="M232.108,151.539c.44,7.314.784,10.4-2.428,14.574-4.831,6.279-13.91,5.22-16.527-1.815-2.356-6.333-2.681-17.23,4.072-20.986A9.994,9.994,0,0,1,232.108,151.539Z" transform="translate(-172.341 -119.288)" fill="#ce7a63"/>
        <circle id="Ellipse_2" data-name="Ellipse 2" cx="13.494" cy="13.494" r="13.494" transform="translate(44.893 26.317) rotate(-77.193)" fill="#682a00"/>
        <path id="Path_103" data-name="Path 103" d="M231.624,140.987c2.782,1.832,4.164,4.644,3.088,6.279s-4.205,1.474-6.988-.358-4.164-4.644-3.087-6.279S228.842,139.154,231.624,140.987Z" transform="translate(-173.939 -118.971)" fill="#ffc9a4"/>
        <path id="Path_104" data-name="Path 104" d="M228.666,156.464c.728-1.675-1.8-6.657-1.256-8.52-1.456-1.347-16.154,3.442-14.97-.06,1.133-3.35,4.718-7.8,12.9-5.941,8.77,2,9.5,9.552,8.519,11.964s-2.366,4.922-2.366,4.922Z" transform="translate(-172.436 -119.224)" fill="#682a00"/>
        <path id="Path_105" data-name="Path 105" d="M236.555,159.888a5.352,5.352,0,0,1-1.512,3.8c-1.318,1.338-2.907.383-3.318-1.348-.37-1.558-.13-4.131,1.567-4.819A2.4,2.4,0,0,1,236.555,159.888Z" transform="translate(-174.861 -121.224)" fill="#ce7a63"/>
        <path id="Path_106" data-name="Path 106" d="M230.527,235.907s-13.227,64.517-5.85,85.793c7.672,22.131,20.16,53.028,20.16,53.028l11.661-.669s-9.635-39.039-11.979-56.668c-3.232-24.3,10.64-89.434,10.64-89.434Z" transform="translate(-173.707 -130.142)" fill="#ffc9a4"/>
        <path id="Path_107" data-name="Path 107" d="M260.21,394.621l-13.5.775-2.165-5.307,14.889-1.547Z" transform="translate(-176.499 -150.422)" fill="#ff6f00"/>
        <path id="Path_108" data-name="Path 108" d="M247.585,242.744c-2.027,7.5-.332,18.732,3.495,26.612.935-6.125,1.931-12.04,2.874-17.343C251.989,248.248,249.822,244.84,247.585,242.744Z" transform="translate(-176.774 -132.009)" fill="#f4a671"/>
        <path id="Path_109" data-name="Path 109" d="M240.321,233.292s19.643,46.906,32.645,72.717c10.5,20.848,49.4,42.663,49.4,42.663l6.966-7.407S300.255,315.445,293,301.308C269.8,256.06,274.571,236.3,261.32,226.515Z" transform="translate(-175.966 -129.96)" fill="#ffc9a4"/>
        <path id="Path_110" data-name="Path 110" d="M341.438,356.023l-9.605,10.214-6.083-3.2,11.067-11.285Z" transform="translate(-186.754 -145.776)" fill="#ff6f00"/>
        <path id="Path_111" data-name="Path 111" d="M259.915,224.425l2.111,2.139c.163.166-.006.444-.336.55l-29.925,9.659c-.258.083-.511.026-.579-.13l-1.083-2.472c-.074-.171.1-.392.382-.483l28.895-9.327A.545.545,0,0,1,259.915,224.425Z" transform="translate(-174.673 -129.683)" fill="#682a00"/>
        <path id="Path_112" data-name="Path 112" d="M260.718,229.021l.773-.25c.155-.05.246-.167.2-.261l-1.435-3.2c-.042-.093-.2-.129-.356-.08l-.773.25c-.155.05-.246.167-.2.26l1.434,3.2C260.4,229.034,260.563,229.07,260.718,229.021Z" transform="translate(-178.314 -129.795)" fill="#f4a671"/>
        <path id="Path_113" data-name="Path 113" d="M234.339,237.535l.774-.25c.154-.049.246-.167.2-.26l-1.434-3.2c-.042-.093-.2-.129-.356-.08l-.774.249c-.154.05-.246.168-.2.261l1.434,3.2C234.024,237.549,234.185,237.585,234.339,237.535Z" transform="translate(-174.983 -130.87)" fill="#f4a671"/>
        <path id="Path_114" data-name="Path 114" d="M247.528,233.278l.774-.25c.155-.05.246-.167.2-.26l-1.435-3.2c-.042-.094-.2-.13-.356-.08l-.774.25c-.154.05-.246.167-.2.261l1.434,3.2C247.213,233.292,247.374,233.327,247.528,233.278Z" transform="translate(-176.648 -130.332)" fill="#f4a671"/>
        <path id="Path_115" data-name="Path 115" d="M222.546,156.635c.073.591-.183,1.108-.569,1.155s-.758-.393-.83-.985.183-1.109.569-1.156S222.474,156.044,222.546,156.635Z" transform="translate(-173.543 -121.01)" fill="#682a00"/>
        <path id="Path_116" data-name="Path 116" d="M214.9,157.568c.073.592-.183,1.109-.569,1.156s-.758-.394-.83-.985.183-1.109.569-1.156S214.827,156.978,214.9,157.568Z" transform="translate(-172.577 -121.128)" fill="#682a00"/>
        <path id="Path_117" data-name="Path 117" d="M214.141,156.564l-1.47-.236S213.534,157.348,214.141,156.564Z" transform="translate(-172.474 -121.096)" fill="#682a00"/>
        <path id="Path_118" data-name="Path 118" d="M217.028,158.627a15.9,15.9,0,0,1-1.646,4.03,2.561,2.561,0,0,0,2.155.139Z" transform="translate(-172.816 -121.387)" fill="#ba4d3c"/>
        <path id="Path_119" data-name="Path 119" d="M220.5,165.376a.175.175,0,0,1-.021-.349,4.731,4.731,0,0,0,3.6-2.3.175.175,0,0,1,.314.155,4.994,4.994,0,0,1-3.866,2.489Z" transform="translate(-173.441 -121.892)" fill="#682a00"/>
        <path id="Path_120" data-name="Path 120" d="M223.248,154.158a.352.352,0,0,1-.229-.086,2.768,2.768,0,0,0-2.437-.672.35.35,0,0,1-.193-.672,3.47,3.47,0,0,1,3.087.814.35.35,0,0,1-.228.615Z" transform="translate(-173.417 -120.631)" fill="#682a00"/>
        <path id="Path_121" data-name="Path 121" d="M211.1,154.262a.35.35,0,0,1-.312-.507,3.471,3.471,0,0,1,2.54-1.935.35.35,0,0,1,.08.7h0a2.769,2.769,0,0,0-1.995,1.553A.349.349,0,0,1,211.1,154.262Z" transform="translate(-172.231 -120.527)" fill="#682a00"/>
        <path id="Path_122" data-name="Path 122" d="M260.073,183.491l.328.418.411.5c.279.335.572.678.873,1.012.605.668,1.235,1.331,1.9,1.961a47.672,47.672,0,0,0,4.169,3.638c1.485,1.106,3.008,2.171,4.6,3.137.8.474,1.614.931,2.431,1.38l1.249.635.61.309c.148.066.3.141.435.19a3.569,3.569,0,0,0,1.408.287,2.207,2.207,0,0,0,1.222-.452,9.621,9.621,0,0,0,2.7-3.6,29.688,29.688,0,0,0,1.944-5.192c.552-1.814.98-3.755,1.341-5.591l3.732.236a38.268,38.268,0,0,1-1.817,12.685,18.273,18.273,0,0,1-1.444,3.212,11.959,11.959,0,0,1-2.485,3.106,8.732,8.732,0,0,1-4.18,2.05,9.521,9.521,0,0,1-4.528-.315c-.343-.1-.656-.218-.976-.337l-.761-.315-1.489-.625c-.981-.441-1.953-.91-2.907-1.413a48.287,48.287,0,0,1-5.512-3.4,49.919,49.919,0,0,1-5.024-4.141c-.791-.751-1.546-1.546-2.286-2.369-.369-.414-.734-.831-1.089-1.276l-.529-.682c-.185-.246-.33-.442-.57-.792Z" transform="translate(-177.672 -124.353)" fill="#ce7a63"/>
        <path id="Path_123" data-name="Path 123" d="M266.91,188.594l-5.462,9.183-2.672-2.521,5.05-9.191Z" transform="translate(-178.296 -124.852)" fill="#682a00"/>
        <path id="Path_124" data-name="Path 124" d="M253.78,175.88c3.139-.054,10.776,8.965,10.776,8.965l-6.635,11.56s-8.457-7.455-8.448-11.539C249.482,180.615,250.2,175.94,253.78,175.88Z" transform="translate(-177.121 -123.565)" fill="#ff6f00"/>
        <path id="Path_125" data-name="Path 125" d="M341.688,375.416a1.093,1.093,0,0,1-.663-.251.594.594,0,0,1-.256-.544c.083-.939,2.444-2.183,2.713-2.321a.177.177,0,0,1,.191.02.174.174,0,0,1,.057.183c-.272.944-.861,2.571-1.753,2.866A.9.9,0,0,1,341.688,375.416Zm1.581-2.6c-.931.524-2.108,1.345-2.153,1.839a.25.25,0,0,0,.122.236.656.656,0,0,0,.629.149C342.348,374.878,342.861,374.058,343.269,372.812Z" transform="translate(-188.651 -148.368)" fill="#ff6f00"/>
        <path id="Path_126" data-name="Path 126" d="M341.259,373.019a1.742,1.742,0,0,1-1.092-.274.611.611,0,0,1-.135-.752.91.91,0,0,1,.565-.53c1.014-.347,2.872.683,2.949.728a.174.174,0,0,1,.005.3A5.3,5.3,0,0,1,341.259,373.019Zm-.177-1.281a1.149,1.149,0,0,0-.371.055.567.567,0,0,0-.357.332c-.086.209-.023.3.041.354.391.337,1.844.194,2.678-.142A5.311,5.311,0,0,0,341.082,371.738Z" transform="translate(-188.549 -148.256)" fill="#ff6f00"/>
        <path id="Path_127" data-name="Path 127" d="M248.546,407.129a2.917,2.917,0,0,1-1.711-.408,1.09,1.09,0,0,1-.444-.841.5.5,0,0,1,.219-.476c.8-.539,3.777.817,4.367,1.094a.174.174,0,0,1-.037.328A11.706,11.706,0,0,1,248.546,407.129Zm-1.4-1.511a.628.628,0,0,0-.344.074.162.162,0,0,0-.066.166.742.742,0,0,0,.307.583c.688.52,2.332.322,3.289.149A10.85,10.85,0,0,0,247.151,405.619Z" transform="translate(-176.732 -152.536)" fill="#ff6f00"/>
        <path id="Path_128" data-name="Path 128" d="M251.131,406.576a.181.181,0,0,1-.067-.013c-.988-.4-2.981-2-2.869-2.829.024-.181.149-.408.6-.462,1.738-.226,2.478,2.956,2.508,3.09a.174.174,0,0,1-.058.172A.177.177,0,0,1,251.131,406.576Zm-2.178-2.965a1.087,1.087,0,0,0-.118.007c-.183.022-.282.077-.294.162-.065.48,1.312,1.743,2.319,2.3C250.63,405.311,250,403.611,248.953,403.611Z" transform="translate(-176.959 -152.281)" fill="#ff6f00"/>
        <path id="Path_129" data-name="Path 129" d="M221.788,155.63l-1.47-.236S221.181,156.414,221.788,155.63Z" transform="translate(-173.439 -120.978)" fill="#682a00"/>
      </g>
      <g id="Group_1603" data-name="Group 1603" transform="translate(0)">
        <path id="Path_130" data-name="Path 130" d="M156.949,85.778C155.4,87.719,146.878,90,140.106,89.369c-2.33,15.3,5.824,32.935,5.824,32.935s17.693-2.111,18.13-9.392S156.949,85.778,156.949,85.778Z" transform="translate(-139.688 -70.654)" fill="#f4a671"/>
        <path id="Path_131" data-name="Path 131" d="M312.066,72.453c1.583,2.224,9.622,4.438,15.824,3.281,3.331,18.123-2.837,39.646-2.837,39.646s-16.493-1.463-17.458-10.125S312.066,72.453,312.066,72.453Z" transform="translate(-160.878 -68.971)" fill="#f4a671"/>
        <path id="Path_132" data-name="Path 132" d="M176.845,230.516h0a.971.971,0,0,1-1.1-.826L154.95,82.5a.971.971,0,0,1,.826-1.1h0a.97.97,0,0,1,1.1.826l20.8,147.19A.971.971,0,0,1,176.845,230.516Z" transform="translate(-141.614 -70.1)" fill="#ff6f00"/>
        <path id="Path_133" data-name="Path 133" d="M293.052,217.993h0a.971.971,0,0,0,1.1-.826l20.8-147.19a.97.97,0,0,0-.825-1.1h0a.971.971,0,0,0-1.1.825L292.228,216.9A.97.97,0,0,0,293.052,217.993Z" transform="translate(-158.95 -68.519)" fill="#ff6f00"/>
        <path id="Path_134" data-name="Path 134" d="M154.053,83.98l3.924,28.9a1.287,1.287,0,0,0,1.631,1.063c8.788-2.515,57.636-15.065,132.738-7.077a1.284,1.284,0,0,0,1.4-1.028c1.415-7.321,3.856-28.175,4.471-33.51A1.287,1.287,0,0,0,297.1,70.9c-10.085-1.276-78.908-8.907-142.168,11.675A1.3,1.3,0,0,0,154.053,83.98Z" transform="translate(-141.5 -68.468)" fill="#ffc9a4"/>
        <g id="Group_1602" data-name="Group 1602" transform="translate(25.154 11.201)">
          <path id="Path_135" data-name="Path 135" d="M168.477,91.376l4.143-.841,2.932,7.611.742-8.356,4.129-.837,3.627,7.46.055-8.206,4.121-.835-.539,14.767-4.278.867-4.1-8.4-.846,9.4-4.278.867Z" transform="translate(-168.477 -82.056)" fill="#fff"/>
          <path id="Path_136" data-name="Path 136" d="M193.4,86.867l11.787-1.73.385,3.048-7.38,1.083.287,2.268,6.846-1,.367,2.91-6.846,1,.356,2.813,7.593-1.115.407,3.232-12,1.762Z" transform="translate(-171.625 -81.774)" fill="#fff"/>
          <path id="Path_137" data-name="Path 137" d="M210.325,84.657l4.416-.477.946,10.81,6.894-.744.309,3.532L211.58,99Z" transform="translate(-173.762 -81.653)" fill="#fff"/>
          <path id="Path_138" data-name="Path 138" d="M235.6,90.823l3.941.9a7.378,7.378,0,0,1-1.09,2.826,5.517,5.517,0,0,1-2,1.807,7.886,7.886,0,0,1-3.144.786,9.121,9.121,0,0,1-3.851-.409,5.9,5.9,0,0,1-2.68-2.215,8.051,8.051,0,0,1-1.3-4.317,7.63,7.63,0,0,1,1.609-5.622,7.336,7.336,0,0,1,5.254-2.3,7.167,7.167,0,0,1,4.314.794,6.3,6.3,0,0,1,2.475,3.212l-3.864,1.152a3.324,3.324,0,0,0-.48-.931,2.5,2.5,0,0,0-.95-.721,2.587,2.587,0,0,0-1.217-.188,2.663,2.663,0,0,0-2.244,1.38,5.246,5.246,0,0,0-.46,2.876,5.332,5.332,0,0,0,.892,3.227,2.43,2.43,0,0,0,2.079.741,2.513,2.513,0,0,0,1.884-.854A4.546,4.546,0,0,0,235.6,90.823Z" transform="translate(-175.672 -81.409)" fill="#fff"/>
          <path id="Path_139" data-name="Path 139" d="M243.421,89.04a7.581,7.581,0,0,1,1.885-5.561,7.494,7.494,0,0,1,5.427-2.145,7.354,7.354,0,0,1,5.545,1.753,7.174,7.174,0,0,1,2.008,5.35,9.008,9.008,0,0,1-.793,4.172,6.218,6.218,0,0,1-2.414,2.6,8.157,8.157,0,0,1-3.976,1.03,9.044,9.044,0,0,1-4.028-.646,5.886,5.886,0,0,1-2.611-2.375A8.08,8.08,0,0,1,243.421,89.04Zm4.433-.126a4.778,4.778,0,0,0,.848,3.111,2.678,2.678,0,0,0,2.21.882,2.783,2.783,0,0,0,2.2-1.006,5.429,5.429,0,0,0,.74-3.38,4.4,4.4,0,0,0-.856-2.948,3,3,0,0,0-4.369.157A4.927,4.927,0,0,0,247.854,88.914Z" transform="translate(-177.941 -81.293)" fill="#fff"/>
          <path id="Path_140" data-name="Path 140" d="M263.454,81.288l5.829.047,2.008,8.794,2.471-8.758,5.826.047-.394,14.422-3.629-.03.3-11-3.1,10.976-3.285-.026L266.99,84.742l-.3,11-3.629-.028Z" transform="translate(-180.422 -81.288)" fill="#fff"/>
          <path id="Path_141" data-name="Path 141" d="M285.507,81.583l11.858.528-.195,3.076-7.424-.33-.145,2.29,6.887.307-.186,2.938-6.887-.306-.18,2.84,7.638.341-.206,3.263-12.073-.537Z" transform="translate(-183.141 -81.325)" fill="#fff"/>
        </g>
      </g>
    </g>
  </g>
</svg>
